# xmcd CD database file
#
# Track frame offsets:
#	150
#	26974
#	47001
#	70322
#	88514
#	102952
#	119111
#	142420
#	156587
#	177850
#	190512
#	202573
#	221097
#	232364
#	244208
#	256120
#	266106
#	282547
#	298732
#	309714
#	324617
#
# Disc length: 4528 seconds
#
# Revision: 0
# Processed by: cddbd v1.5.2PL0 Copyright (c) Steve Scherf et al.
# Submitted via: CDex 1.51
#
DISCID=5711ae15
DTITLE=Marty Paich - The Picasso of Big Band and Lush, Latin and Cool
DYEAR=2015
DGENRE=Jazz
TTITLE0=From Now On
TTITLE1=Walkin On Home
TTITLE2=Black Rose
TTITLE3=Tommy's Toon
TTITLE4=New Soft Shoe
TTITLE5=What's New
TTITLE6=Easy Listenin'
TTITLE7=Martyni Time
TTITLE8=Nice And Easy
TTITLE9=Honky Tonk Train
TTITLE10=Invitation
TTITLE11=Autumn Leaves
TTITLE12=Honeysuckle Rose
TTITLE13=Stella By Starlight
TTITLE14=Cumana
TTITLE15=Sabre Dance
TTITLE16=Canadian Sunset
TTITLE17=St Louis Blues Boogie Woogie
TTITLE18=Little Rock Getaway
TTITLE19=Misirlou
TTITLE20=One O'Clock Jump
EXTD=YEAR: 2015
EXTT0=
EXTT1=
EXTT2=
EXTT3=
EXTT4=
EXTT5=
EXTT6=
EXTT7=
EXTT8=
EXTT9=
EXTT10=
EXTT11=
EXTT12=
EXTT13=
EXTT14=
EXTT15=
EXTT16=
EXTT17=
EXTT18=
EXTT19=
EXTT20=
PLAYORDER=
